HIERARCHY
ROOT mixamorig:Hips
{
	OFFSET 0.000000 201.639420 0.000000
	CHANNELS 6 Xposition Yposition Zposition Xrotation Yrotation Zrotation
	JOINT mixamorig:Spine
	{
		OFFSET 0.006200 19.524994 -2.481800
		CHANNELS 3 Xrotation Yrotation Zrotation
		JOINT mixamorig:Spine1
		{
			OFFSET -0.000900 22.835007 -2.825400
			CHANNELS 3 Xrotation Yrotation Zrotation
			JOINT mixamorig:Spine2
			{
				OFFSET -0.020600 26.552490 -3.193300
				CHANNELS 3 Xrotation Yrotation Zrotation
				JOINT mixamorig:Neck
				{
					OFFSET -0.060000 30.701813 1.352200
					CHANNELS 3 Xrotation Yrotation Zrotation
					JOINT mixamorig:Head
					{
						OFFSET -0.087200 22.547607 3.670900
						CHANNELS 3 Xrotation Yrotation Zrotation
						JOINT mixamorig:HeadTop_End
						{
							OFFSET -0.830600 40.355194 7.893500
							CHANNELS 3 Xrotation Yrotation Zrotation
							End Site
							{
								OFFSET 0.000000 30.592346 0.000000
							}
						}
						JOINT mixamorig:RightEye
						{
							OFFSET -6.302100 18.118591 16.197100
							CHANNELS 3 Xrotation Yrotation Zrotation
							End Site
							{
								OFFSET 0.000000 30.592346 0.000000
							}
						}
						JOINT mixamorig:LeftEye
						{
							OFFSET 6.741500 18.382690 16.401899
							CHANNELS 3 Xrotation Yrotation Zrotation
							End Site
							{
								OFFSET 0.000000 30.592346 0.000000
							}
						}
					}
				}
				JOINT mixamorig:LeftShoulder
				{
					OFFSET 11.924900 18.230499 1.425400
					CHANNELS 3 Xrotation Yrotation Zrotation
					JOINT mixamorig:LeftArm
					{
						OFFSET 25.435989 -0.697632 -5.229300
						CHANNELS 3 Xrotation Yrotation Zrotation
						JOINT mixamorig:LeftForeArm
						{
							OFFSET 54.684776 0.000000 0.000000
							CHANNELS 3 Xrotation Yrotation Zrotation
							JOINT mixamorig:LeftHand
							{
								OFFSET 55.098175 0.000000 0.000000
								CHANNELS 3 Xrotation Yrotation Zrotation
								JOINT mixamorig:LeftHandMiddle1
								{
									OFFSET 23.369751 0.000000 0.000000
									CHANNELS 3 Xrotation Yrotation Zrotation
									JOINT mixamorig:LeftHandMiddle2
									{
										OFFSET 6.378677 0.000000 0.000000
										CHANNELS 3 Xrotation Yrotation Zrotation
										JOINT mixamorig:LeftHandMiddle3
										{
											OFFSET 6.148331 0.000000 0.000000
											CHANNELS 3 Xrotation Yrotation Zrotation
											JOINT mixamorig:LeftHandMiddle4
											{
												OFFSET 6.582504 0.000000 0.000000
												CHANNELS 3 Xrotation Yrotation Zrotation
												End Site
												{
													OFFSET -1.168900 6.395691 1.028606
												}
											}
										}
									}
								}
								JOINT mixamorig:LeftHandThumb1
								{
									OFFSET 7.235672 -3.848206 5.434273
									CHANNELS 3 Xrotation Yrotation Zrotation
									JOINT mixamorig:LeftHandThumb2
									{
										OFFSET 6.568451 -3.792297 3.792300
										CHANNELS 3 Xrotation Yrotation Zrotation
										JOINT mixamorig:LeftHandThumb3
										{
											OFFSET 6.063080 -3.500519 3.500518
											CHANNELS 3 Xrotation Yrotation Zrotation
											JOINT mixamorig:LeftHandThumb4
											{
												OFFSET 4.793182 -2.767334 2.767349
												CHANNELS 3 Xrotation Yrotation Zrotation
												End Site
												{
													OFFSET 0.101639 6.054260 1.275483
												}
											}
										}
									}
								}
								JOINT mixamorig:LeftHandIndex1
								{
									OFFSET 23.101074 -0.309540 4.992809
									CHANNELS 3 Xrotation Yrotation Zrotation
									JOINT mixamorig:LeftHandIndex2
									{
										OFFSET 6.226883 0.000000 0.000000
										CHANNELS 3 Xrotation Yrotation Zrotation
										JOINT mixamorig:LeftHandIndex3
										{
											OFFSET 6.094330 0.000000 0.000000
											CHANNELS 3 Xrotation Yrotation Zrotation
											JOINT mixamorig:LeftHandIndex4
											{
												OFFSET 5.482605 0.000000 0.000000
												CHANNELS 3 Xrotation Yrotation Zrotation
												End Site
												{
													OFFSET -1.427902 5.233032 0.797164
												}
											}
										}
									}
								}
								JOINT mixamorig:LeftHandRing1
								{
									OFFSET 22.299240 0.021149 -3.964172
									CHANNELS 3 Xrotation Yrotation Zrotation
									JOINT mixamorig:LeftHandRing2
									{
										OFFSET 6.321869 0.000000 0.000000
										CHANNELS 3 Xrotation Yrotation Zrotation
										JOINT mixamorig:LeftHandRing3
										{
											OFFSET 5.899796 0.000000 0.000000
											CHANNELS 3 Xrotation Yrotation Zrotation
											JOINT mixamorig:LeftHandRing4
											{
												OFFSET 6.517899 0.000000 0.000000
												CHANNELS 3 Xrotation Yrotation Zrotation
												End Site
												{
													OFFSET -1.637299 6.232208 0.980890
												}
											}
										}
									}
								}
								JOINT mixamorig:LeftHandPinky1
								{
									OFFSET 20.463791 -0.302338 -8.562233
									CHANNELS 3 Xrotation Yrotation Zrotation
									JOINT mixamorig:LeftHandPinky2
									{
										OFFSET 6.908646 0.000000 0.000000
										CHANNELS 3 Xrotation Yrotation Zrotation
										JOINT mixamorig:LeftHandPinky3
										{
											OFFSET 4.622849 0.000000 0.000000
											CHANNELS 3 Xrotation Yrotation Zrotation
											JOINT mixamorig:LeftHandPinky4
											{
												OFFSET 5.216080 0.000000 0.000000
												CHANNELS 3 Xrotation Yrotation Zrotation
												End Site
												{
													OFFSET -0.606308 5.116241 0.814926
												}
											}
										}
									}
								}
							}
						}
					}
				}
				JOINT mixamorig:RightShoulder
				{
					OFFSET -12.001300 18.284088 1.348900
					CHANNELS 3 Xrotation Yrotation Zrotation
					JOINT mixamorig:RightArm
					{
						OFFSET -25.308500 -0.751312 -5.164599
						CHANNELS 3 Xrotation Yrotation Zrotation
						JOINT mixamorig:RightForeArm
						{
							OFFSET -54.684429 0.000000 0.000000
							CHANNELS 3 Xrotation Yrotation Zrotation
							JOINT mixamorig:RightHand
							{
								OFFSET -55.150291 0.000000 0.000000
								CHANNELS 3 Xrotation Yrotation Zrotation
								JOINT mixamorig:RightHandMiddle1
								{
									OFFSET -23.317566 0.000000 0.000000
									CHANNELS 3 Xrotation Yrotation Zrotation
									JOINT mixamorig:RightHandMiddle2
									{
										OFFSET -6.378403 0.000000 0.000000
										CHANNELS 3 Xrotation Yrotation Zrotation
										JOINT mixamorig:RightHandMiddle3
										{
											OFFSET -6.148193 0.000000 0.000000
											CHANNELS 3 Xrotation Yrotation Zrotation
											JOINT mixamorig:RightHandMiddle4
											{
												OFFSET -6.583389 0.000000 0.000000
												CHANNELS 3 Xrotation Yrotation Zrotation
												End Site
												{
													OFFSET 1.171692 6.395905 1.029786
												}
											}
										}
									}
								}
								JOINT mixamorig:RightHandThumb1
								{
									OFFSET -7.190521 -3.860474 5.435846
									CHANNELS 3 Xrotation Yrotation Zrotation
									JOINT mixamorig:RightHandThumb2
									{
										OFFSET -6.567429 -3.791718 3.791708
										CHANNELS 3 Xrotation Yrotation Zrotation
										JOINT mixamorig:RightHandThumb3
										{
											OFFSET -6.062469 -3.500153 3.500166
											CHANNELS 3 Xrotation Yrotation Zrotation
											JOINT mixamorig:RightHandThumb4
											{
												OFFSET -4.792618 -2.767029 2.767022
												CHANNELS 3 Xrotation Yrotation Zrotation
												End Site
												{
													OFFSET -0.100327 6.053253 1.276754
												}
											}
										}
									}
								}
								JOINT mixamorig:RightHandIndex1
								{
									OFFSET -23.048981 -0.310791 4.992554
									CHANNELS 3 Xrotation Yrotation Zrotation
									JOINT mixamorig:RightHandIndex2
									{
										OFFSET -6.227539 0.000000 0.000000
										CHANNELS 3 Xrotation Yrotation Zrotation
										JOINT mixamorig:RightHandIndex3
										{
											OFFSET -6.095047 0.000000 0.000000
											CHANNELS 3 Xrotation Yrotation Zrotation
											JOINT mixamorig:RightHandIndex4
											{
												OFFSET -5.484772 0.000000 0.000000
												CHANNELS 3 Xrotation Yrotation Zrotation
												End Site
												{
													OFFSET 1.420593 5.237305 0.797056
												}
											}
										}
									}
								}
								JOINT mixamorig:RightHandRing1
								{
									OFFSET -22.246323 0.020569 -3.963762
									CHANNELS 3 Xrotation Yrotation Zrotation
									JOINT mixamorig:RightHandRing2
									{
										OFFSET -6.322128 0.000000 0.000000
										CHANNELS 3 Xrotation Yrotation Zrotation
										JOINT mixamorig:RightHandRing3
										{
											OFFSET -5.900024 0.000000 0.000000
											CHANNELS 3 Xrotation Yrotation Zrotation
											JOINT mixamorig:RightHandRing4
											{
												OFFSET -6.518356 0.000000 0.000000
												CHANNELS 3 Xrotation Yrotation Zrotation
												End Site
												{
													OFFSET 1.636398 6.232697 0.982186
												}
											}
										}
									}
								}
								JOINT mixamorig:RightHandPinky1
								{
									OFFSET -20.411011 -0.303314 -8.561701
									CHANNELS 3 Xrotation Yrotation Zrotation
									JOINT mixamorig:RightHandPinky2
									{
										OFFSET -6.907349 0.000000 0.000000
										CHANNELS 3 Xrotation Yrotation Zrotation
										JOINT mixamorig:RightHandPinky3
										{
											OFFSET -4.623840 0.000000 0.000000
											CHANNELS 3 Xrotation Yrotation Zrotation
											JOINT mixamorig:RightHandPinky4
											{
												OFFSET -5.218353 0.000000 0.000000
												CHANNELS 3 Xrotation Yrotation Zrotation
												End Site
												{
													OFFSET 0.602097 5.118835 0.816273
												}
											}
										}
									}
								}
							}
						}
					}
				}
			}
		}
	}
	JOINT mixamorig:LeftUpLeg
	{
		OFFSET 18.168400 -13.561905 -0.039000
		CHANNELS 3 Xrotation Yrotation Zrotation
		JOINT mixamorig:LeftLeg
		{
			OFFSET 0.577358 -80.825211 -3.695000
			CHANNELS 3 Xrotation Yrotation Zrotation
			JOINT mixamorig:LeftFoot
			{
				OFFSET -0.577356 -83.370262 -6.520700
				CHANNELS 3 Xrotation Yrotation Zrotation
				JOINT mixamorig:LeftToeBase
				{
					OFFSET 0.750401 -20.798306 25.135401
					CHANNELS 3 Xrotation Yrotation Zrotation
					JOINT mixamorig:LeftToe_End
					{
						OFFSET -0.000500 0.001200 19.917799
						CHANNELS 3 Xrotation Yrotation Zrotation
						End Site
						{
							OFFSET 0.000000 19.917805 0.000000
						}
					}
				}
			}
		}
	}
	JOINT mixamorig:RightUpLeg
	{
		OFFSET -18.162500 -13.585098 -0.041000
		CHANNELS 3 Xrotation Yrotation Zrotation
		JOINT mixamorig:RightLeg
		{
			OFFSET -0.595024 -80.945297 -3.631900
			CHANNELS 3 Xrotation Yrotation Zrotation
			JOINT mixamorig:RightFoot
			{
				OFFSET 0.595024 -83.218193 -6.561200
				CHANNELS 3 Xrotation Yrotation Zrotation
				JOINT mixamorig:RightToeBase
				{
					OFFSET -0.753601 -20.807106 25.115000
					CHANNELS 3 Xrotation Yrotation Zrotation
					JOINT mixamorig:RightToe_End
					{
						OFFSET 0.000299 0.001700 19.918200
						CHANNELS 3 Xrotation Yrotation Zrotation
						End Site
						{
							OFFSET 0.000000 19.918203 0.000000
						}
					}
				}
			}
		}
	}
}
MOTION
Frames: 4
Frame Time: 0.033333
-10.371993 27.649414 9.688583 76.634053 10.115456 3.038237 -11.994753 6.561153 3.153956 -0.820456 0.368304 -1.568115 -0.796264 0.386542 -1.588273 -30.740865 -1.276489 -0.804640 -15.251314 -6.363524 9.910938 0.000000 0.000000 0.000000 0.000000 0.000000 0.000000 0.000000 0.000000 0.000000 -13.975934 -19.423338 2.430425 -85.660715 -29.413711 -56.998953 10.379121 -55.750159 19.947084 -2.219311 -20.861764 36.594303 -22.793940 19.557482 -31.362152 5.780668 11.578816 -52.049539 5.290104 6.753650 -31.043613 0.000001 0.000001 -0.000001 -3.359829 2.033482 -5.038068 20.529368 3.305390 8.000150 -2.567956 -4.158379 2.148801 0.000003 0.000002 0.000000 -26.491550 6.865806 -21.301410 5.807309 11.279773 -49.216079 4.937896 7.234861 -31.728090 0.000002 -0.000001 -0.000001 -21.813143 33.838909 -46.449002 5.369116 12.173259 -56.568402 4.739836 7.333746 -31.084570 -0.000000 0.000002 -0.000001 -5.913015 24.874301 -49.903985 4.147054 12.082770 -50.703858 6.021079 8.390554 -47.367222 -0.000001 0.000001 -0.000001 0.534969 -7.388503 2.113264 -77.995412 35.074241 97.902320 -49.435427 102.758721 48.678014 -28.154986 28.954005 -11.496097 6.279870 -10.271127 51.564711 6.335282 -4.344950 111.141426 0.240434 -1.434790 18.795583 -0.000005 0.000001 0.000002 14.803366 33.170626 9.969873 27.402208 -13.676338 -15.241774 10.712511 -48.632378 -21.616150 0.000001 -0.000000 0.000001 2.254383 4.598607 3.927518 1.422366 -3.352144 45.974099 0.583685 -2.259322 28.967386 -0.000002 0.000000 -0.000000 -1.451616 -2.527034 53.537294 5.514132 -4.577823 100.614888 1.738911 -3.537223 51.308234 -0.000002 -0.000003 0.000003 -0.954624 -3.605766 66.563745 3.858520 -4.588329 80.114895 2.144448 -3.922392 57.319152 0.000001 0.000001 -0.000001 -36.817284 56.392135 41.686813 34.326697 -28.613192 -4.178102 -12.326576 33.706997 9.503295 -5.379283 1.609855 6.194290 0.000000 -0.000000 0.000000 -12.990113 -37.898855 -31.987111 29.008288 -15.848766 3.218868 2.795373 8.329772 15.459845 13.824181 -3.265071 -16.585286 -0.000000 -0.000001 0.000001 
-10.723186 27.465759 9.460068 76.420760 10.422275 3.029654 -11.983308 6.619403 2.892231 -0.909746 0.373466 -1.746899 -0.884292 0.395169 -1.767776 -30.477284 -1.564144 -0.523404 -15.180452 -6.933473 10.570881 -0.000000 -0.000000 0.000000 -0.000000 -0.000000 0.000000 -0.000000 -0.000000 0.000000 -13.701119 -18.655089 2.453312 -85.165485 -31.903626 -59.108177 23.370312 -58.164300 37.392397 11.231636 -23.039869 48.580274 -25.320445 14.835917 -21.811125 4.770305 11.515895 -47.261651 4.749925 6.687171 -26.429999 -0.000000 0.000000 -0.000001 -2.879082 1.035780 -4.111686 20.333150 2.533113 7.953946 -2.837718 -4.908916 2.076584 0.000003 -0.000000 -0.000000 -29.042142 0.353574 -11.532448 4.807557 11.213793 -44.322928 4.303056 7.126617 -26.652633 -0.000002 -0.000002 -0.000001 -25.976968 30.106275 -39.829360 3.903624 12.027412 -49.868304 4.060143 7.198703 -25.714634 0.000000 -0.000002 -0.000001 -7.068445 23.965160 -46.269276 2.753799 11.804101 -44.236970 5.182960 8.365820 -41.619782 0.000000 -0.000004 0.000001 0.548157 -7.355427 2.186036 -77.145013 34.243748 97.442395 -49.356579 102.578916 48.614039 -27.427243 27.712518 -11.104533 6.480517 -10.632428 50.774967 6.335024 -4.345053 111.137997 0.239552 -1.427449 18.796146 -0.000001 0.000000 0.000002 15.167176 33.068842 10.013278 27.210446 -13.859805 -15.326094 10.738459 -48.627959 -21.591459 0.000001 -0.000000 -0.000000 2.111393 4.427282 4.213215 1.422363 -3.352146 45.974096 0.583362 -2.258731 28.958984 0.000001 -0.000000 -0.000003 -1.520499 -2.505989 53.496319 5.514380 -4.577777 100.617859 1.739418 -3.541016 51.310977 -0.000000 -0.000001 0.000003 -1.027690 -3.603209 66.565453 3.871592 -4.590580 80.278628 2.155610 -3.929539 57.482326 -0.000008 -0.000002 0.000001 -36.978743 56.020563 41.967312 34.798479 -28.802573 -4.073036 -12.936252 33.757045 9.695177 -5.107864 1.577763 5.985413 -0.000000 0.000000 0.000000 -12.547523 -38.033413 -31.592941 28.984184 -15.790299 3.166384 2.459186 8.295755 15.545512 15.177727 -4.241336 -18.832355 0.000003 -0.000000 -0.000002 
-11.164943 27.239258 9.191193 76.147218 10.803081 3.035482 -12.067440 6.662415 2.487022 -0.994744 0.376106 -1.855501 -0.969038 0.399816 -1.876958 -30.329506 -1.632405 -0.579360 -14.415640 -7.261497 11.026237 -0.000000 -0.000000 0.000001 -0.000000 -0.000000 0.000001 -0.000000 -0.000000 0.000001 -13.298191 -18.048138 3.227232 -83.539531 -34.223838 -59.926290 32.605482 -61.640142 50.340239 19.876757 -29.053815 53.037426 -26.838936 10.547444 -14.088235 3.861897 11.388548 -42.926906 4.266409 6.589775 -22.249338 0.000001 -0.000002 0.000000 -2.418735 0.127013 -3.235904 20.154124 1.817585 7.910325 -3.089457 -5.602713 2.005762 -0.000001 -0.000000 -0.000001 -30.602253 -5.765383 -4.023036 3.932803 11.086936 -40.021432 3.766929 6.989327 -22.291444 -0.000000 -0.000001 -0.000002 -29.059439 26.393092 -34.137265 2.665698 11.767245 -44.126413 3.505292 7.038249 -21.239409 0.000003 -0.000002 0.000002 -8.223604 22.925620 -42.494196 1.593112 11.443891 -38.723607 4.480456 8.280383 -36.769548 -0.000002 -0.000001 -0.000000 0.584648 -7.172883 2.338963 -76.198574 33.476055 96.655653 -46.168018 101.534157 45.568877 -25.684366 26.515057 -10.864039 6.811559 -11.129600 50.124931 6.334162 -4.345399 111.126522 0.238318 -1.417308 18.796940 -0.000002 0.000000 -0.000000 14.602717 32.501127 10.563123 26.934095 -14.122412 -15.447701 11.028948 -48.577928 -21.314959 -0.000001 -0.000001 0.000003 1.911183 4.190522 4.653126 1.422367 -3.352144 45.974102 0.583026 -2.258122 28.950583 -0.000000 -0.000001 -0.000003 -1.593483 -2.492986 53.539391 5.517318 -4.577212 100.654797 1.742020 -3.546784 51.347545 -0.000003 -0.000000 0.000001 -1.134450 -3.603148 66.621433 3.872911 -4.590799 80.294734 2.156706 -3.930229 57.498110 -0.000001 -0.000002 -0.000000 -37.219583 55.581183 42.366629 35.377453 -29.024315 -3.947910 -13.443852 33.809583 9.797514 -5.059117 1.539674 5.779492 0.000000 0.000000 0.000000 -11.990423 -38.218867 -31.115483 28.955737 -15.745837 3.149854 2.106332 8.257752 15.626296 16.713137 -5.567008 -21.586456 0.000002 0.000001 -0.000000 
-11.546061 27.166550 8.876053 75.723111 11.151621 2.994936 -11.900149 6.678610 2.180133 -1.080366 0.381441 -1.869500 -1.055113 0.404573 -1.891876 -30.410854 -1.559069 -0.851188 -14.395232 -7.616761 11.278578 -0.000000 0.000000 -0.000000 -0.000000 0.000000 -0.000000 -0.000000 0.000000 -0.000000 -12.839939 -17.137443 4.523027 -80.307971 -37.009025 -58.440369 38.029001 -66.841768 58.674091 21.191873 -36.324715 49.805968 -27.556395 7.418093 -8.883126 3.128606 11.240336 -39.405332 3.879661 6.484999 -18.853361 -0.000001 -0.000000 0.000000 -1.985686 -0.641565 -2.438884 19.997520 1.182940 7.870938 -3.314314 -6.216853 1.939763 -0.000001 0.000001 0.000000 -31.198685 -9.971495 0.750506 3.267928 10.950473 -36.753596 3.382299 6.863462 -19.102791 -0.000000 0.000000 0.000001 -31.040631 23.297642 -29.484612 1.773810 11.501970 -39.925348 3.134503 6.904196 -18.185160 0.000001 -0.000002 -0.000000 -9.317568 21.789523 -38.759985 0.775088 11.119350 -34.762927 4.000680 8.187162 -33.420358 -0.000002 0.000003 -0.000001 0.609411 -7.054456 2.444404 -75.521217 32.849805 95.932964 -42.491286 100.336251 42.056238 -23.756042 25.509221 -10.725131 6.963238 -11.387722 49.717780 6.341572 -4.342528 111.224665 0.237716 -1.412268 18.797357 0.000003 0.000001 -0.000000 13.799296 31.770369 11.172230 26.760213 -14.288849 -15.523551 11.282161 -48.533449 -21.073989 0.000000 0.000000 -0.000001 1.814729 4.118386 5.303209 1.422367 -3.352150 45.974092 0.582700 -2.257532 28.942199 -0.000000 -0.000003 -0.000000 -1.633366 -2.508891 53.769117 5.520576 -4.576621 100.695471 1.744729 -3.550990 51.387895 -0.000004 0.000002 -0.000001 -1.204262 -3.619002 66.803908 3.865617 -4.589574 80.203838 2.150469 -3.926262 57.407159 -0.000002 -0.000004 -0.000001 -37.389436 55.085933 42.803453 36.067596 -28.830556 -3.704056 -13.658604 33.296667 9.692363 -5.272143 1.524095 5.849510 0.000000 -0.000000 -0.000000 -11.324162 -38.452244 -30.564140 28.951458 -15.710092 3.164101 1.894928 8.229828 15.669835 18.126767 -7.048528 -24.409993 -0.000001 0.000001 -0.000004 
